<svg width="286" height="89" viewBox="0 0 286 89" fill="none" xmlns="http://www.w3.org/2000/svg">
<path d="M3.94009 40.68H13.5001V32.01H16.8401V54.18H13.5001V43.83H3.94009V54.18H0.600098V32.01H3.94009V40.68Z" fill="#1A1A18"/>
<path d="M22.2202 42.99C22.2202 39.87 23.3602 37.19 25.6502 34.95C27.9302 32.71 30.6602 31.59 33.8602 31.59C37.0202 31.59 39.7302 32.72 41.9802 34.98C44.2502 37.24 45.3802 39.95 45.3802 43.12C45.3802 46.31 44.2402 49.01 41.9602 51.23C39.6702 53.46 36.9102 54.57 33.6802 54.57C30.8202 54.57 28.2502 53.58 25.9702 51.6C23.4802 49.42 22.2202 46.54 22.2202 42.99ZM25.6002 43.04C25.6002 45.49 26.4202 47.5 28.0702 49.08C29.7102 50.66 31.6002 51.45 33.7402 51.45C36.0702 51.45 38.0302 50.65 39.6302 49.04C41.2302 47.41 42.0302 45.43 42.0302 43.1C42.0302 40.74 41.2402 38.76 39.6602 37.16C38.0902 35.55 36.1502 34.75 33.8302 34.75C31.5202 34.75 29.5802 35.55 27.9902 37.16C26.3902 38.74 25.6002 40.7 25.6002 43.04Z" fill="#1A1A18"/>
<path d="M50.78 54.18V30.5L66.94 47.41V32.01H70.29V55.52L54.13 38.65V54.17H50.78V54.18Z" fill="#1A1A18"/>
<path d="M89.8802 35.16H81.0002V40.49H89.6302V43.63H81.0002V51.04H89.8902V54.18H77.6602V32.01H89.8902V35.16H89.8802Z" fill="#1A1A18"/>
<path d="M108.28 35.31L105.57 36.92C105.06 36.04 104.58 35.47 104.12 35.2C103.64 34.89 103.02 34.74 102.27 34.74C101.34 34.74 100.57 35 99.9601 35.53C99.3501 36.05 99.0401 36.7 99.0401 37.48C99.0401 38.56 99.8401 39.43 101.45 40.09L103.66 40.99C105.46 41.72 106.78 42.6 107.61 43.65C108.44 44.7 108.86 45.98 108.86 47.5C108.86 49.54 108.18 51.22 106.82 52.55C105.45 53.89 103.75 54.56 101.72 54.56C99.8001 54.56 98.2101 53.99 96.9501 52.85C95.7201 51.71 94.9401 50.11 94.6401 48.04L98.0301 47.29C98.1801 48.59 98.4501 49.49 98.8301 49.99C99.5201 50.95 100.52 51.43 101.84 51.43C102.88 51.43 103.75 51.08 104.44 50.38C105.13 49.68 105.47 48.8 105.47 47.72C105.47 47.29 105.41 46.89 105.29 46.54C105.17 46.18 104.98 45.85 104.73 45.55C104.48 45.25 104.15 44.97 103.75 44.7C103.35 44.43 102.87 44.19 102.31 43.95L100.17 43.06C97.1401 41.78 95.6201 39.9 95.6201 37.43C95.6201 35.76 96.2601 34.37 97.5301 33.25C98.8001 32.12 100.39 31.56 102.28 31.56C104.85 31.58 106.84 32.83 108.28 35.31Z" fill="#1A1A18"/>
<path d="M120.47 35.16V54.18H117.13V35.16H112.03V32.02H125.55V35.16H120.47Z" fill="#1A1A18"/>
<path d="M219.51 44.73L226.37 54.18H222.28L215.95 45.11H215.35V54.18H212V32.01H215.92C218.85 32.01 220.96 32.56 222.27 33.66C223.71 34.89 224.42 36.5 224.42 38.51C224.42 40.08 223.97 41.43 223.07 42.56C222.17 43.69 220.98 44.41 219.51 44.73ZM215.35 42.19H216.41C219.58 42.19 221.16 40.98 221.16 38.56C221.16 36.29 219.62 35.16 216.54 35.16H215.35V42.19Z" fill="#1A1A18"/>
<path d="M244.19 48.79H234.7L232.23 54.17H228.63L239.6 30.61L250.18 54.17H246.52L244.19 48.79ZM242.83 45.65L239.54 38.11L236.09 45.65H242.83Z" fill="#1A1A18"/>
<path d="M261.93 44.73L268.79 54.18H264.7L258.37 45.11H257.77V54.18H254.42V32.01H258.34C261.27 32.01 263.38 32.56 264.68 33.66C266.12 34.89 266.83 36.5 266.83 38.51C266.83 40.08 266.38 41.43 265.48 42.56C264.59 43.69 263.4 44.41 261.93 44.73ZM257.76 42.19H258.82C261.99 42.19 263.57 40.98 263.57 38.56C263.57 36.29 262.03 35.16 258.95 35.16H257.76V42.19Z" fill="#1A1A18"/>
<path d="M285.82 35.16H276.93V40.49H285.56V43.63H276.93V51.04H285.82V54.18H273.59V32.01H285.82V35.16Z" fill="#1A1A18"/>
<path d="M193.17 67.96C192 61.56 188.22 56.66 183.87 52.08C180.47 48.5 149.82 16.11 146.54 12.66C144.8 10.83 145.25 8.63 146.14 7.47C148.89 3.86 153.18 1.47 158.49 1.47C164.3 1.47 169.39 4.77 172.26 9.09C175.7 14.24 173.14 20.27 169.56 23.62C168.46 24.65 166.76 26.03 168.51 27.56C170.32 29.15 172.84 26.77 174.23 24.36C176.07 21.17 177.79 13.63 172.08 6.75999C168.92 2.95999 163.97 0.600006 158.49 0.600006C151.57 0.600006 145.95 4.52 143.15 9.98C140.8 14.56 141.11 19.42 143.23 23.82C144.42 26.29 145.33 28.44 144.53 30.47C144.05 31.67 142.98 33 141.24 34.4C136.6 38.12 133.58 43.6 133.29 49.69C133.19 50.95 133.26 52.18 133.46 53.39C134.91 63.89 144.53 72.03 156.16 72.03C166.9 72.03 175.02 63.01 174.94 62.97C174.92 62.96 173.5 64.4 172.36 65.23C167.78 68.53 160.95 69.62 156.59 65.41C153.64 62.55 148.28 57.22 144.27 52.59C140.26 47.96 137.31 42.14 139.85 37.62C140.35 36.73 141.61 35.38 143.18 34.13C143.76 33.74 144.35 33.37 144.97 33.03C146.87 32.1 149.27 31.8 152.81 35.6L181.29 66.18C184.93 70.09 188.72 75.97 188.35 81.67C188.29 82.62 187.88 84 186.7 84.95C185.66 85.8 184.95 85.75 184.2 86.55C183.13 87.69 184.5 89 185.8 88.36C187.5 87.52 189.21 84.93 190.39 82.97C193.3 78.09 194.17 73.48 193.17 67.96Z" fill="#1A1A18"/>
<path d="M205.09 34.21C204.51 31.87 201.47 32.45 199.62 33.19C196.39 34.48 193.98 36.17 190.07 40.58C188.01 42.9 184.67 48.37 184.67 48.37C184.67 48.37 188 44.47 189.27 43.26C193.58 39.15 196.23 37.81 200.88 37.17C202.3 36.98 205.67 36.55 205.09 34.21Z" fill="#1A1A18"/>
</svg>
